<svg width="0" height="0" class="hidden">
  <symbol version="1.1" id="close-svgrepo-com" xmlns="http://www.w3.org/2000/svg" xmlns:xlink="http://www.w3.org/1999/xlink" x="0px" y="0px" xml:space="preserve" viewBox="0 0 378.303 378.303">
    <polygon points="378.303,28.285 350.018,0 189.151,160.867 28.285,0 0,28.285 160.867,189.151 0,350.018 
	28.285,378.302 189.151,217.436 350.018,378.302 378.303,350.018 217.436,189.151 "></polygon>
    <g></g>
    <g></g>
    <g></g>
    <g></g>
    <g></g>
    <g></g>
    <g></g>
    <g></g>
    <g></g>
    <g></g>
    <g></g>
    <g></g>
    <g></g>
    <g></g>
    <g></g>
  </symbol>
  <symbol version="1.1" id="facebook-svgrepo-com" xmlns="http://www.w3.org/2000/svg" xmlns:xlink="http://www.w3.org/1999/xlink" x="0px" y="0px" xml:space="preserve" viewBox="0 0 291.319 291.319">
    <g>
      <path d="M145.659,0c80.45,0,145.66,65.219,145.66,145.66c0,80.45-65.21,145.659-145.66,145.659
		S0,226.109,0,145.66C0,65.219,65.21,0,145.659,0z"></path>
      <path d="M163.394,100.277h18.772v-27.73h-22.067v0.1c-26.738,0.947-32.218,15.977-32.701,31.763h-0.055
		v13.847h-18.207v27.156h18.207v72.793h27.439v-72.793h22.477l4.342-27.156h-26.81v-8.366
		C154.791,104.556,158.341,100.277,163.394,100.277z"></path>
    </g>
    <g></g>
    <g></g>
    <g></g>
    <g></g>
    <g></g>
    <g></g>
    <g></g>
    <g></g>
    <g></g>
    <g></g>
    <g></g>
    <g></g>
    <g></g>
    <g></g>
    <g></g>
  </symbol>
  <symbol fill="none" xmlns="http://www.w3.org/2000/svg" viewBox="0 0 15 15" id="hamburger-menu-svgrepo-com">
    <path fill-rule="evenodd" clip-rule="evenodd" d="M1.5 3C1.22386 3 1 3.22386 1 3.5C1 3.77614 1.22386 4 1.5 4H13.5C13.7761 4 14 3.77614 14 3.5C14 3.22386 13.7761 3 13.5 3H1.5ZM1 7.5C1 7.22386 1.22386 7 1.5 7H13.5C13.7761 7 14 7.22386 14 7.5C14 7.77614 13.7761 8 13.5 8H1.5C1.22386 8 1 7.77614 1 7.5ZM1 11.5C1 11.2239 1.22386 11 1.5 11H13.5C13.7761 11 14 11.2239 14 11.5C14 11.7761 13.7761 12 13.5 12H1.5C1.22386 12 1 11.7761 1 11.5Z" fill="#fff"></path>
  </symbol>
  <symbol version="1.1" id="instagram-svgrepo-com" xmlns="http://www.w3.org/2000/svg" xmlns:xlink="http://www.w3.org/1999/xlink" x="0px" y="0px" xml:space="preserve" viewBox="0 0 551.034 551.034">
    <g id="XMLID_13_">
      <linearGradient id="XMLID_2_" gradientUnits="userSpaceOnUse" x1="275.517" y1="4.5714" x2="275.517" y2="549.7202" gradientTransform="matrix(1 0 0 -1 0 554)">
        <stop offset="0"></stop>
        <stop offset="0.3"></stop>
        <stop offset="0.6"></stop>
        <stop offset="1"></stop>
      </linearGradient>
      <path id="XMLID_17_" d="M386.878,0H164.156C73.64,0,0,73.64,0,164.156v222.722
		c0,90.516,73.64,164.156,164.156,164.156h222.722c90.516,0,164.156-73.64,164.156-164.156V164.156
		C551.033,73.64,477.393,0,386.878,0z M495.6,386.878c0,60.045-48.677,108.722-108.722,108.722H164.156
		c-60.045,0-108.722-48.677-108.722-108.722V164.156c0-60.046,48.677-108.722,108.722-108.722h222.722
		c60.045,0,108.722,48.676,108.722,108.722L495.6,386.878L495.6,386.878z"></path>
      <linearGradient id="XMLID_3_" gradientUnits="userSpaceOnUse" x1="275.517" y1="4.5714" x2="275.517" y2="549.7202" gradientTransform="matrix(1 0 0 -1 0 554)">
        <stop offset="0"></stop>
        <stop offset="0.3"></stop>
        <stop offset="0.6"></stop>
        <stop offset="1"></stop>
      </linearGradient>
      <path id="XMLID_81_" d="M275.517,133C196.933,133,133,196.933,133,275.516
		s63.933,142.517,142.517,142.517S418.034,354.1,418.034,275.516S354.101,133,275.517,133z M275.517,362.6
		c-48.095,0-87.083-38.988-87.083-87.083s38.989-87.083,87.083-87.083c48.095,0,87.083,38.988,87.083,87.083
		C362.6,323.611,323.611,362.6,275.517,362.6z"></path>
      <linearGradient id="XMLID_4_" gradientUnits="userSpaceOnUse" x1="418.306" y1="4.5714" x2="418.306" y2="549.7202" gradientTransform="matrix(1 0 0 -1 0 554)">
        <stop offset="0"></stop>
        <stop offset="0.3"></stop>
        <stop offset="0.6"></stop>
        <stop offset="1"></stop>
      </linearGradient>
      <circle id="XMLID_83_" cx="418.306" cy="134.072" r="34.149"></circle>
    </g>
    <g></g>
    <g></g>
    <g></g>
    <g></g>
    <g></g>
    <g></g>
    <g></g>
    <g></g>
    <g></g>
    <g></g>
    <g></g>
    <g></g>
    <g></g>
    <g></g>
    <g></g>
  </symbol>
  <symbol xmlns="http://www.w3.org/2000/svg" viewBox="-83.76405 -41.87075 725.9551 251.2245" id="Spotify-Logo.wine">
    <path d="M83.743 0C37.494 0 0 37.493 0 83.742c0 46.251 37.494 83.741 83.743 83.741 46.254 0 83.744-37.49 83.744-83.741 0-46.246-37.49-83.738-83.745-83.738zm38.404 120.78a5.217 5.217 0 01-7.18 1.73c-19.662-12.01-44.414-14.73-73.564-8.07a5.222 5.222 0 01-6.249-3.93 5.213 5.213 0 013.926-6.25c31.9-7.288 59.263-4.15 81.337 9.34 2.46 1.51 3.24 4.72 1.73 7.18zm10.25-22.802c-1.89 3.072-5.91 4.042-8.98 2.152-22.51-13.836-56.823-17.843-83.448-9.761-3.453 1.043-7.1-.903-8.148-4.35a6.538 6.538 0 014.354-8.143c30.413-9.228 68.222-4.758 94.072 11.127 3.07 1.89 4.04 5.91 2.15 8.976zm.88-23.744c-26.99-16.031-71.52-17.505-97.289-9.684-4.138 1.255-8.514-1.081-9.768-5.219a7.835 7.835 0 015.221-9.771c29.581-8.98 78.756-7.245 109.83 11.202a7.823 7.823 0 012.74 10.733c-2.2 3.722-7.02 4.949-10.73 2.739zm94.56 3.072c-14.46-3.448-17.03-5.868-17.03-10.953 0-4.804 4.52-8.037 11.25-8.037 6.52 0 12.98 2.455 19.76 7.509.2.153.46.214.71.174a.933.933 0 00.63-.386l7.06-9.952a.95.95 0 00-.18-1.288c-8.07-6.473-17.15-9.62-27.77-9.62-15.61 0-26.52 9.369-26.52 22.774 0 14.375 9.41 19.465 25.67 23.394 13.83 3.187 16.17 5.857 16.17 10.629 0 5.29-4.72 8.58-12.32 8.58-8.44 0-15.33-2.85-23.03-9.51a.98.98 0 00-.69-.23c-.26.02-.49.14-.65.33l-7.92 9.42c-.33.4-.29.98.09 1.32 8.96 8 19.98 12.22 31.88 12.22 16.82 0 27.69-9.19 27.69-23.42.03-12.007-7.16-18.657-24.77-22.941zm62.86-14.26c-7.29 0-13.27 2.872-18.21 8.757v-6.624a.945.945 0 00-.94-.949h-12.95c-.52 0-.94.426-.94.949v73.601c0 .52.42.95.94.95h12.95c.52 0 .94-.43.94-.95v-23.23c4.94 5.53 10.92 8.24 18.21 8.24 13.55 0 27.27-10.43 27.27-30.369.02-19.943-13.7-30.376-27.26-30.376zm12.21 30.375c0 10.149-6.25 17.239-15.21 17.239-8.85 0-15.53-7.41-15.53-17.239 0-9.83 6.68-17.238 15.53-17.238 8.81-.001 15.21 7.247 15.21 17.237zm50.21-30.375c-17.45 0-31.12 13.436-31.12 30.592 0 16.972 13.58 30.262 30.91 30.262 17.51 0 31.22-13.39 31.22-30.479 0-17.031-13.62-30.373-31.01-30.373zm0 47.714c-9.28 0-16.28-7.46-16.28-17.344 0-9.929 6.76-17.134 16.07-17.134 9.34 0 16.38 7.457 16.38 17.351 0 9.927-6.8 17.127-16.17 17.127zm68.27-46.53h-14.25V49.664a.944.944 0 00-.94-.948h-12.95c-.52 0-.95.426-.95.948V64.23h-6.22c-.52 0-.94.426-.94.949v11.127c0 .522.42.949.94.949h6.22v28.795c0 11.63 5.79 17.53 17.22 17.53 4.64 0 8.49-.96 12.12-3.02.3-.16.48-.48.48-.82v-10.6c0-.32-.17-.63-.45-.8a.918.918 0 00-.92-.04c-2.49 1.25-4.9 1.83-7.6 1.83-4.15 0-6.01-1.89-6.01-6.11V77.26h14.25c.52 0 .94-.426.94-.949V65.185a.918.918 0 00-.93-.949zm49.64.057v-1.789c0-5.263 2.02-7.61 6.54-7.61 2.7 0 4.87.536 7.3 1.346.3.094.61.047.85-.132a.94.94 0 00.39-.77v-10.91a.937.937 0 00-.67-.909c-2.56-.763-5.84-1.546-10.76-1.546-11.95 0-18.28 6.734-18.28 19.467v2.74h-6.22c-.52 0-.95.426-.95.948v11.184c0 .522.43.949.95.949h6.22v44.405c0 .53.43.95.95.95h12.94c.53 0 .95-.42.95-.95V77.258h12.09l18.52 44.402c-2.1 4.66-4.17 5.59-6.99 5.59-2.28 0-4.69-.68-7.14-2.03a1.03 1.03 0 00-.75-.07c-.25.09-.46.27-.56.51l-4.39 9.63c-.21.46-.03.99.41 1.23 4.58 2.48 8.71 3.54 13.82 3.54 9.56 0 14.85-4.46 19.5-16.44l22.46-58.037a.925.925 0 00-.1-.881.924.924 0 00-.77-.412h-13.48c-.41 0-.77.257-.9.636l-13.81 39.434-15.12-39.46a.944.944 0 00-.88-.61h-22.12zm-28.78-.057h-12.95c-.52 0-.95.426-.95.949v56.481c0 .53.43.95.95.95h12.95c.52 0 .95-.42.95-.95V65.183a.947.947 0 00-.95-.949zm-6.4-25.719c-5.13 0-9.29 4.152-9.29 9.281a9.289 9.289 0 009.29 9.289c5.13 0 9.28-4.157 9.28-9.289 0-5.128-4.16-9.281-9.28-9.281zm113.42 43.88c-5.12 0-9.11-4.115-9.11-9.112s4.04-9.159 9.16-9.159 9.11 4.114 9.11 9.107c0 4.997-4.04 9.164-9.16 9.164zm.05-17.365c-4.67 0-8.2 3.71-8.2 8.253 0 4.541 3.51 8.201 8.15 8.201 4.67 0 8.2-3.707 8.2-8.253 0-4.541-3.51-8.201-8.15-8.201zm2.02 9.138l2.58 3.608h-2.18l-2.32-3.31h-1.99v3.31h-1.82v-9.564h4.26c2.23 0 3.69 1.137 3.69 3.051.01 1.568-.9 2.526-2.21 2.905zm-1.54-4.315h-2.37v3.025h2.37c1.18 0 1.89-.579 1.89-1.514 0-.984-.71-1.511-1.89-1.511z" fill="#1ED760"></path>
  </symbol>
  <symbol version="1.1" fill="#fff" id="spotify-logo-svgrepo-com" xmlns="http://www.w3.org/2000/svg" xmlns:xlink="http://www.w3.org/1999/xlink" x="0px" y="0px" xml:space="preserve" viewBox="0 0 186.845 186.845">
    <g>
      <path d="M128.875,120.962c-31.094-14.37-74.616-8.014-76.453-7.737c-4.096,0.619-6.915,4.44-6.296,8.536
		c0.619,4.096,4.443,6.912,8.536,6.296c0.406-0.062,40.867-5.982,67.92,6.521c1.018,0.471,2.089,0.694,3.142,0.694
		c2.834-0.001,5.546-1.614,6.813-4.355C134.274,127.157,132.635,122.7,128.875,120.962z"></path>
      <path d="M137.614,93.953c-35.313-16.319-84.833-9.087-86.924-8.772c-4.094,0.619-6.911,4.438-6.294,8.532
		c0.616,4.095,4.438,6.916,8.531,6.301c0.468-0.071,47.206-6.857,78.394,7.556c1.02,0.471,2.089,0.694,3.142,0.694
		c2.834-0.001,5.546-1.614,6.814-4.356C143.014,100.148,141.374,95.691,137.614,93.953z"></path>
      <path d="M143.49,65.736c-39.006-18.027-93.79-10.028-96.103-9.679c-4.094,0.619-6.911,4.438-6.294,8.532s4.44,6.919,8.531,6.3
		c0.523-0.079,52.691-7.657,87.573,8.463c1.018,0.471,2.089,0.694,3.142,0.694c2.834,0,5.546-1.614,6.813-4.355
		C148.89,71.93,147.25,67.474,143.49,65.736z"></path>
      <path d="M93.423,0.001C41.909,0.001,0,41.909,0,93.42c0,51.514,41.909,93.424,93.423,93.424c51.513,0,93.422-41.91,93.422-93.424
		C186.845,41.909,144.936,0.001,93.423,0.001z M93.423,171.844C50.18,171.844,15,136.664,15,93.42
		c0-43.241,35.18-78.42,78.423-78.42c43.242,0,78.422,35.179,78.422,78.42C171.845,136.664,136.665,171.844,93.423,171.844z"></path>
    </g>
    <g></g>
    <g></g>
    <g></g>
    <g></g>
    <g></g>
    <g></g>
    <g></g>
    <g></g>
    <g></g>
    <g></g>
    <g></g>
    <g></g>
    <g></g>
    <g></g>
    <g></g>
  </symbol>
  <symbol xmlns="http://www.w3.org/2000/svg" xml:space="preserve" y="0" x="0" id="YouTube-Logo.wine" version="1.1" viewBox="-57.15 -21.25 495.3 127.5">
    <g id="g7433">
      <path id="path7429" d="M118.9 13.3c-1.4-5.2-5.5-9.3-10.7-10.7C98.7 0 60.7 0 60.7 0s-38 0-47.5 2.5C8.1 3.9 3.9 8.1 2.5 13.3 0 22.8 0 42.5 0 42.5s0 19.8 2.5 29.2C3.9 76.9 8 81 13.2 82.4 22.8 85 60.7 85 60.7 85s38 0 47.5-2.5c5.2-1.4 9.3-5.5 10.7-10.7 2.5-9.5 2.5-29.2 2.5-29.2s.1-19.8-2.5-29.3z" fill="red"></path>
      <path id="polygon7431" fill="#fff" d="M48.6 24.3v36.4l31.6-18.2z"></path>
    </g>
    <g id="g7451">
      <g id="g7449">
        <path id="path7435" d="M176.3 77.4c-2.4-1.6-4.1-4.1-5.1-7.6-1-3.4-1.5-8-1.5-13.6v-7.7c0-5.7.6-10.3 1.7-13.8 1.2-3.5 3-6 5.4-7.6 2.5-1.6 5.7-2.4 9.7-2.4 3.9 0 7.1.8 9.5 2.4 2.4 1.6 4.1 4.2 5.2 7.6 1.1 3.4 1.7 8 1.7 13.8v7.7c0 5.7-.5 10.2-1.6 13.7-1.1 3.4-2.8 6-5.2 7.6-2.4 1.6-5.7 2.4-9.8 2.4-4.2-.1-7.6-.9-10-2.5zm13.5-8.4c.7-1.7 1-4.6 1-8.5V43.9c0-3.8-.3-6.6-1-8.4-.7-1.8-1.8-2.6-3.5-2.6-1.6 0-2.8.9-3.4 2.6-.7 1.8-1 4.6-1 8.4v16.6c0 3.9.3 6.8 1 8.5.6 1.7 1.8 2.6 3.5 2.6 1.6 0 2.7-.8 3.4-2.6z"></path>
        <path id="path7437" d="M360.9 56.3V59c0 3.4.1 6 .3 7.7.2 1.7.6 3 1.3 3.7.6.8 1.6 1.2 3 1.2 1.8 0 3-.7 3.7-2.1.7-1.4 1-3.7 1.1-7l10.3.6c.1.5.1 1.1.1 1.9 0 4.9-1.3 8.6-4 11-2.7 2.4-6.5 3.6-11.4 3.6-5.9 0-10-1.9-12.4-5.6-2.4-3.7-3.6-9.4-3.6-17.2v-9.3c0-8 1.2-13.8 3.7-17.5 2.5-3.7 6.7-5.5 12.6-5.5 4.1 0 7.3.8 9.5 2.3 2.2 1.5 3.7 3.9 4.6 7 .9 3.2 1.3 7.6 1.3 13.2v9.1h-20.1zm1.5-22.4c-.6.8-1 2-1.2 3.7-.2 1.7-.3 4.3-.3 7.8v3.8h8.8v-3.8c0-3.4-.1-6-.3-7.8-.2-1.8-.7-3-1.3-3.7-.6-.7-1.6-1.1-2.8-1.1-1.4-.1-2.3.3-2.9 1.1z"></path>
        <path id="path7439" d="M147.1 55.3L133.5 6h11.9l4.8 22.3c1.2 5.5 2.1 10.2 2.7 14.1h.3c.4-2.8 1.3-7.4 2.7-14l5-22.4h11.9L159 55.3v23.6h-11.8V55.3z"></path>
        <path id="path7441" d="M241.6 25.7V79h-9.4l-1-6.5h-.3c-2.5 4.9-6.4 7.4-11.5 7.4-3.5 0-6.1-1.2-7.8-3.5-1.7-2.3-2.5-5.9-2.5-10.9V25.7h12v39.1c0 2.4.3 4.1.8 5.1s1.4 1.5 2.6 1.5c1 0 2-.3 3-1 1-.6 1.7-1.4 2.1-2.4V25.7z"></path>
        <path id="path7443" d="M303.1 25.7V79h-9.4l-1-6.5h-.3c-2.5 4.9-6.4 7.4-11.5 7.4-3.5 0-6.1-1.2-7.8-3.5-1.7-2.3-2.5-5.9-2.5-10.9V25.7h12v39.1c0 2.4.3 4.1.8 5.1s1.4 1.5 2.6 1.5c1 0 2-.3 3-1 1-.6 1.7-1.4 2.1-2.4V25.7z"></path>
        <path id="path7445" d="M274.2 15.7h-11.9v63.2h-11.7V15.7h-11.9V6h35.5z"></path>
        <path id="path7447" d="M342.8 34.2c-.7-3.4-1.9-5.8-3.5-7.3s-3.9-2.3-6.7-2.3c-2.2 0-4.3.6-6.2 1.9-1.9 1.2-3.4 2.9-4.4 4.9h-.1V3.3h-11.6v75.6h9.9l1.2-5h.3c.9 1.8 2.3 3.2 4.2 4.3 1.9 1 3.9 1.6 6.2 1.6 4.1 0 7-1.9 8.9-5.6 1.9-3.7 2.9-9.6 2.9-17.5v-8.4c-.1-6.1-.4-10.8-1.1-14.1zm-11 21.7c0 3.9-.2 6.9-.5 9.1-.3 2.2-.9 3.8-1.6 4.7-.8.9-1.8 1.4-3 1.4-1 0-1.9-.2-2.7-.7-.8-.5-1.5-1.2-2-2.1V38.1c.4-1.4 1.1-2.6 2.1-3.6 1-.9 2.1-1.4 3.2-1.4 1.2 0 2.2.5 2.8 1.4.7 1 1.1 2.6 1.4 4.8.3 2.3.4 5.5.4 9.6v7z"></path>
      </g>
    </g>
  </symbol>
  <symbol fill="#fff" xmlns="http://www.w3.org/2000/svg" viewBox="0 0 20 20" id="youtube-with-circle-svgrepo-com">
    <path d="M11.603 9.833L9.357 8.785C9.161 8.694 9 8.796 9 9.013v1.974c0 .217.161.319.357.228l2.245-1.048c.197-.092.197-.242.001-.334zM10 .4C4.698.4.4 4.698.4 10s4.298 9.6 9.6 9.6 9.6-4.298 9.6-9.6S15.302.4 10 .4zm0 13.5c-4.914 0-5-.443-5-3.9s.086-3.9 5-3.9 5 .443 5 3.9-.086 3.9-5 3.9z"></path>
  </symbol>
</svg>