<svg width="0" height="0" class="hidden">
  <symbol version="1.1" id="close-svgrepo-com" xmlns="http://www.w3.org/2000/svg" xmlns:xlink="http://www.w3.org/1999/xlink" x="0px" y="0px" xml:space="preserve" viewBox="0 0 378.303 378.303">
    <polygon points="378.303,28.285 350.018,0 189.151,160.867 28.285,0 0,28.285 160.867,189.151 0,350.018 
	28.285,378.302 189.151,217.436 350.018,378.302 378.303,350.018 217.436,189.151 "></polygon>
    <g></g>
    <g></g>
    <g></g>
    <g></g>
    <g></g>
    <g></g>
    <g></g>
    <g></g>
    <g></g>
    <g></g>
    <g></g>
    <g></g>
    <g></g>
    <g></g>
    <g></g>
  </symbol>
  <symbol fill="#fff" xmlns="http://www.w3.org/2000/svg" viewBox="0 0 20 20" id="facebook-svgrepo-com">
    <path d="M11.603 9.833L9.357 8.785C9.161 8.694 9 8.796 9 9.013v1.974c0 .217.161.319.357.228l2.245-1.048c.197-.092.197-.242.001-.334zM10 .4C4.698.4.4 4.698.4 10s4.298 9.6 9.6 9.6 9.6-4.298 9.6-9.6S15.302.4 10 .4zm0 13.5c-4.914 0-5-.443-5-3.9s.086-3.9 5-3.9 5 .443 5 3.9-.086 3.9-5 3.9z"></path>
  </symbol>
</svg>